<svg xmlns="http://www.w3.org/2000/svg" viewBox="0 0 300 100" width="300" height="100" class="lottie-anime" preserveAspectRatio="xMidYMid meet" style="width: 100%; height: 100%; transform: translate3d(0px, 0px, 0px); content-visibility: visible;"><defs><clipPath id="__lottie_element_2"><rect width="300" height="100" x="0" y="0"></rect></clipPath><filter id="__lottie_element_20" filterUnits="objectBoundingBox" x="0%" y="0%" width="100%" height="100%"><feComponentTransfer in="SourceGraphic"><feFuncA type="table" tableValues="1.0 0.0"></feFuncA></feComponentTransfer></filter><mask id="__lottie_element_19" mask-type="alpha"><g filter="url(#__lottie_element_20)"><rect width="300" height="100" x="0" y="0" fill="#ffffff" opacity="0"></rect><g transform="matrix(0.4000000059604645,0,0,0.492000013589859,151.1999969482422,55.20000076293945)" opacity="1" style="display: block;"><g opacity="1" transform="matrix(1,0,0,1,-488.43499755859375,-10.451000213623047)"><path fill="rgb(128,239,181)" fill-opacity="1" d=" M237.43499755859375,-67.38999938964844 C335.43499755859375,-67.5479965209961 338.43499755859375,66.45099639892578 236.43499755859375,67.38999938964844 C166.43800354003906,68.03500366210938 -306.43499755859375,67.54900360107422 -306.43499755859375,67.54900360107422 C-306.43499755859375,67.54900360107422 -306.43499755859375,-67.54900360107422 -306.43499755859375,-67.54900360107422 C-306.43499755859375,-67.54900360107422 151.43499755859375,-67.2509994506836 237.43499755859375,-67.38999938964844z"></path></g></g></g></mask></defs><g clip-path="url(#__lottie_element_2)"><g transform="matrix(0.4000000059604645,0,0,0.4000000059604645,35,34.599998474121094)" opacity="1" style="display: block;"><g opacity="1" transform="matrix(1,0,0,1,52.14500045776367,38.465999603271484)"><path fill="rgb(223,245,239)" fill-opacity="1" d=" M35.83700180053711,-8.784000396728516 C33.23699951171875,-25.709999084472656 18.882999420166016,-38.215999603271484 0.9739999771118164,-38.215999603271484 C-17.31599998474121,-38.215999603271484 -32.236000061035156,-25.88599967956543 -35.96200180053711,-8.784000396728516 C-35.96200180053711,-8.784000396728516 -51.89500045776367,-8.784000396728516 -51.89500045776367,-8.784000396728516 C-51.89500045776367,-8.784000396728516 -51.89500045776367,3.9790000915527344 -51.89500045776367,3.9790000915527344 C-51.89500045776367,3.9790000915527344 -36.6349983215332,3.9790000915527344 -36.6349983215332,3.9790000915527344 C-34.55500030517578,23.716999053955078 -18.469999313354492,38.215999603271484 1.274999976158142,38.215999603271484 C16.44099998474121,38.215999603271484 28.753999710083008,32.20899963378906 34.15800094604492,22.298999786376953 C34.15800094604492,22.298999786376953 20.79400062561035,13.741999626159668 20.79400062561035,13.741999626159668 C17.341999053955078,19.445999145507812 9.833000183105469,23.048999786376953 1.5729999542236328,23.048999786376953 C-10.288000106811523,23.048999786376953 -18.398000717163086,15.840999603271484 -20.197999954223633,3.9790000915527344 C-20.197999954223633,3.9790000915527344 35.6609992980957,3.9790000915527344 35.6609992980957,3.9790000915527344 C35.6609992980957,3.9790000915527344 47.68199920654297,3.9790000915527344 47.68199920654297,3.9790000915527344 C47.68199920654297,3.9790000915527344 51.89500045776367,-8.784000396728516 51.89500045776367,-8.784000396728516 C51.89500045776367,-8.784000396728516 35.83700180053711,-8.784000396728516 35.83700180053711,-8.784000396728516z M0.0729999989271164,-24.400999069213867 C10.133999824523926,-24.400999069213867 17.791000366210938,-17.945999145507812 18.69300079345703,-8.784000396728516 C18.69300079345703,-8.784000396728516 -19.599000930786133,-8.784000396728516 -19.599000930786133,-8.784000396728516 C-17.04599952697754,-18.395999908447266 -9.98799991607666,-24.400999069213867 0.0729999989271164,-24.400999069213867z"></path></g></g><g mask="url(#__lottie_element_19)" style="display: block;"><g transform="matrix(0.4000000059604645,0,0,0.4000000059604645,-231.60000610351562,-166)" opacity="1"><g opacity="1" transform="matrix(1,0,0,1,845.573974609375,523.27197265625)"><path fill="rgb(223,245,239)" fill-opacity="1" d=" M-55.111000061035156,-52.55799865722656 C-55.111000061035156,-52.55799865722656 -33.9379997253418,-52.55799865722656 -33.9379997253418,-52.55799865722656 C-33.9379997253418,-52.55799865722656 1.0509999990463257,26.72800064086914 1.0509999990463257,26.72800064086914 C1.0509999990463257,26.72800064086914 37.090999603271484,-52.55799865722656 37.090999603271484,-52.55799865722656 C37.090999603271484,-52.55799865722656 55.111000061035156,-52.55799865722656 55.111000061035156,-52.55799865722656 C55.111000061035156,-52.55799865722656 55.111000061035156,52.55699920654297 55.111000061035156,52.55699920654297 C55.111000061035156,52.55699920654297 37.54100036621094,52.55699920654297 37.54100036621094,52.55699920654297 C37.54100036621094,52.55699920654297 37.54100036621094,-18.020000457763672 37.54100036621094,-18.020000457763672 C37.54100036621094,-18.020000457763672 6.1570000648498535,52.55699920654297 6.1570000648498535,52.55699920654297 C6.1570000648498535,52.55699920654297 -6.756999969482422,52.55699920654297 -6.756999969482422,52.55699920654297 C-6.756999969482422,52.55699920654297 -37.54199981689453,-18.020000457763672 -37.54199981689453,-18.020000457763672 C-37.54199981689453,-18.020000457763672 -37.54199981689453,52.55699920654297 -37.54199981689453,52.55699920654297 C-37.54199981689453,52.55699920654297 -55.111000061035156,52.55699920654297 -55.111000061035156,52.55699920654297 C-55.111000061035156,52.55699920654297 -55.111000061035156,-52.55799865722656 -55.111000061035156,-52.55799865722656z"></path></g><g opacity="1" transform="matrix(1,0,0,1,951.4769897460938,539.114990234375)"><path fill="rgb(223,245,239)" fill-opacity="1" d=" M38.06800079345703,0.07500000298023224 C38.06800079345703,21.849000930786133 21.398000717163086,38.21699905395508 -0.07400000095367432,38.21699905395508 C-21.54800033569336,38.21699905395508 -38.06800079345703,21.849000930786133 -38.06800079345703,0.07500000298023224 C-38.06800079345703,-21.698999404907227 -21.54800033569336,-38.21699905395508 -0.07400000095367432,-38.21699905395508 C21.398000717163086,-38.21699905395508 38.06800079345703,-21.698999404907227 38.06800079345703,0.07500000298023224z M-21.54800033569336,0.07500000298023224 C-21.54800033569336,12.538999557495117 -12.23799991607666,22.149999618530273 -0.07400000095367432,22.149999618530273 C12.08899974822998,22.149999618530273 21.548999786376953,12.538999557495117 21.548999786376953,0.07500000298023224 C21.548999786376953,-12.538000106811523 12.08899974822998,-22.14900016784668 -0.07400000095367432,-22.14900016784668 C-12.23799991607666,-22.14900016784668 -21.54800033569336,-12.538000106811523 -21.54800033569336,0.07500000298023224z"></path></g><g opacity="1" transform="matrix(1,0,0,1,1036.9749755859375,538.364013671875)"><path fill="rgb(223,245,239)" fill-opacity="1" d=" M34.61399841308594,-4.429999828338623 C34.61399841308594,-4.429999828338623 34.61399841308594,37.465999603271484 34.61399841308594,37.465999603271484 C34.61399841308594,37.465999603271484 17.795000076293945,37.465999603271484 17.795000076293945,37.465999603271484 C17.795000076293945,37.465999603271484 17.795000076293945,-1.7269999980926514 17.795000076293945,-1.7269999980926514 C17.795000076293945,-13.58899974822998 10.887999534606934,-20.79800033569336 0.5260000228881836,-20.79800033569336 C-6.98199987411499,-20.79800033569336 -14.190999984741211,-16.89299964904785 -17.94499969482422,-10.586000442504883 C-17.94499969482422,-10.586000442504883 -17.94499969482422,37.465999603271484 -17.94499969482422,37.465999603271484 C-17.94499969482422,37.465999603271484 -34.61399841308594,37.465999603271484 -34.61399841308594,37.465999603271484 C-34.61399841308594,37.465999603271484 -34.61399841308594,-35.9640007019043 -34.61399841308594,-35.9640007019043 C-34.61399841308594,-35.9640007019043 -17.94499969482422,-35.9640007019043 -17.94499969482422,-35.9640007019043 C-17.94499969482422,-35.9640007019043 -17.94499969482422,-26.05500030517578 -17.94499969482422,-26.05500030517578 C-13.4399995803833,-33.11199951171875 -4.730000019073486,-37.465999603271484 4.579999923706055,-37.465999603271484 C22.899999618530273,-37.465999603271484 34.61399841308594,-24.702999114990234 34.61399841308594,-4.429999828338623z"></path></g><g opacity="1" transform="matrix(1,0,0,1,1119.2939453125,539.114990234375)"><path fill="rgb(223,245,239)" fill-opacity="1" d=" M35.96699905395508,3.9790000915527344 C35.96699905395508,3.9790000915527344 -19.895999908447266,3.9790000915527344 -19.895999908447266,3.9790000915527344 C-18.093000411987305,15.842000007629395 -9.984000205993652,23.049999237060547 1.878000020980835,23.049999237060547 C10.137999534606934,23.049999237060547 17.643999099731445,19.44700050354004 21.099000930786133,13.741000175476074 C21.099000930786133,13.741000175476074 34.4640007019043,22.299999237060547 34.4640007019043,22.299999237060547 C29.05900001525879,32.21099853515625 16.7450008392334,38.21699905395508 1.5779999494552612,38.21699905395508 C-19.594999313354492,38.21699905395508 -36.564998626708984,21.548999786376953 -36.564998626708984,-0.375 C-36.564998626708984,-21.698999404907227 -19.89699935913086,-38.21699905395508 1.2769999504089355,-38.21699905395508 C21.099000930786133,-38.21699905395508 36.566001892089844,-22.899999618530273 36.566001892089844,-3.2279999256134033 C36.566001892089844,-1.2760000228881836 36.41600036621094,1.7269999980926514 35.96699905395508,3.9790000915527344z M18.996999740600586,-8.784000396728516 C18.097000122070312,-17.94499969482422 10.437000274658203,-24.400999069213867 0.37599998712539673,-24.400999069213867 C-9.685999870300293,-24.400999069213867 -16.743000030517578,-18.393999099731445 -19.29599952697754,-8.784000396728516 C-19.29599952697754,-8.784000396728516 18.996999740600586,-8.784000396728516 18.996999740600586,-8.784000396728516z"></path></g><g opacity="1" transform="matrix(1,0,0,1,1194.4530029296875,552.0289916992188)"><path fill="rgb(223,245,239)" fill-opacity="1" d=" M37.69200134277344,-49.630001068115234 C37.69200134277344,-49.630001068115234 -3.753999948501587,49.630001068115234 -3.753999948501587,49.630001068115234 C-3.753999948501587,49.630001068115234 -21.77400016784668,49.630001068115234 -21.77400016784668,49.630001068115234 C-21.77400016784668,49.630001068115234 -8.5600004196167,19.895999908447266 -8.5600004196167,19.895999908447266 C-8.5600004196167,19.895999908447266 -37.69200134277344,-49.630001068115234 -37.69200134277344,-49.630001068115234 C-37.69200134277344,-49.630001068115234 -19.67099952697754,-49.630001068115234 -19.67099952697754,-49.630001068115234 C-19.67099952697754,-49.630001068115234 0,0.375 0,0.375 C0,0.375 19.67099952697754,-49.630001068115234 19.67099952697754,-49.630001068115234 C19.67099952697754,-49.630001068115234 37.69200134277344,-49.630001068115234 37.69200134277344,-49.630001068115234z"></path></g></g></g><g transform="matrix(0.39999857544898987,-0.001073141349479556,0.001073141349479556,0.39999857544898987,15.413352012634277,9.110143661499023)" opacity="1" style="display: none;"><g opacity="1" transform="matrix(1,0,0,1,153.08299255371094,51.194000244140625)"><path fill="rgb(223,245,239)" fill-opacity="1" d=" M-50.944000244140625,-50.944000244140625 C5.23799991607666,-50.944000244140625 50.944000244140625,-5.23799991607666 50.944000244140625,50.944000244140625 C50.944000244140625,50.944000244140625 33.391998291015625,50.944000244140625 33.391998291015625,50.944000244140625 C33.391998291015625,4.440000057220459 -4.440000057220459,-33.393001556396484 -50.944000244140625,-33.393001556396484 C-50.944000244140625,-33.393001556396484 -50.944000244140625,-50.944000244140625 -50.944000244140625,-50.944000244140625z"></path></g><g opacity="1" transform="matrix(1,0,0,1,51.19499969482422,153.08299255371094)"><path fill="rgb(223,245,239)" fill-opacity="1" d=" M-50.944000244140625,-50.94499969482422 C-50.944000244140625,-50.94499969482422 -33.393001556396484,-50.94499969482422 -33.393001556396484,-50.94499969482422 C-33.393001556396484,-4.441999912261963 4.440000057220459,33.39400100708008 50.944000244140625,33.39400100708008 C50.944000244140625,33.39400100708008 50.944000244140625,50.94499969482422 50.944000244140625,50.94499969482422 C-5.23799991607666,50.94499969482422 -50.944000244140625,5.236999988555908 -50.944000244140625,-50.94499969482422z"></path></g></g><g transform="matrix(0.4000000059604645,0,0,0.4000000059604645,249.39999389648438,8.999999046325684)" opacity="1" style="display: none;"><g opacity="1" transform="matrix(1,0,0,1,51.194000244140625,51.194000244140625)"><path fill="rgb(223,245,239)" fill-opacity="1" d=" M-50.944000244140625,-50.944000244140625 C5.23799991607666,-50.944000244140625 50.944000244140625,-5.23799991607666 50.944000244140625,50.944000244140625 C50.944000244140625,50.944000244140625 33.391998291015625,50.944000244140625 33.391998291015625,50.944000244140625 C33.391998291015625,4.440000057220459 -4.440000057220459,-33.393001556396484 -50.944000244140625,-33.393001556396484 C-50.944000244140625,-33.393001556396484 -50.944000244140625,-50.944000244140625 -50.944000244140625,-50.944000244140625z"></path></g></g><g transform="matrix(0.4000000059604645,0,0,0.4000000059604645,15.523191452026367,8.999999046325684)" opacity="1" style="display: none;"><g opacity="1" transform="matrix(1,0,0,1,51.19499969482422,153.08299255371094)"><path fill="rgb(223,245,239)" fill-opacity="1" d=" M-50.944000244140625,-50.94499969482422 C-50.944000244140625,-50.94499969482422 -33.393001556396484,-50.94499969482422 -33.393001556396484,-50.94499969482422 C-33.393001556396484,-4.441999912261963 4.440000057220459,33.39400100708008 50.944000244140625,33.39400100708008 C50.944000244140625,33.39400100708008 50.944000244140625,50.94499969482422 50.944000244140625,50.94499969482422 C-5.23799991607666,50.94499969482422 -50.944000244140625,5.236999988555908 -50.944000244140625,-50.94499969482422z"></path></g></g><g transform="matrix(0.4000000059604645,0,0,0.4000000059604645,249.39999389648438,8.999999046325684)" opacity="1" style="display: block;"><g opacity="1" transform="matrix(1,0,0,1,51.194000244140625,51.194000244140625)"><path fill="rgb(223,245,239)" fill-opacity="1" d=" M-50.944000244140625,-50.944000244140625 C5.23799991607666,-50.944000244140625 50.944000244140625,-5.23799991607666 50.944000244140625,50.944000244140625 C50.944000244140625,50.944000244140625 33.391998291015625,50.944000244140625 33.391998291015625,50.944000244140625 C33.391998291015625,4.440000057220459 -4.440000057220459,-33.393001556396484 -50.944000244140625,-33.393001556396484 C-50.944000244140625,-33.393001556396484 -50.944000244140625,-50.944000244140625 -50.944000244140625,-50.944000244140625z"></path></g></g><g transform="matrix(0.4000000059604645,0,0,0.4000000059604645,15.523191452026367,8.999999046325684)" opacity="1" style="display: block;"><g opacity="1" transform="matrix(1,0,0,1,51.19499969482422,153.08299255371094)"><path fill="rgb(223,245,239)" fill-opacity="1" d=" M-50.944000244140625,-50.94499969482422 C-50.944000244140625,-50.94499969482422 -33.393001556396484,-50.94499969482422 -33.393001556396484,-50.94499969482422 C-33.393001556396484,-4.441999912261963 4.440000057220459,33.39400100708008 50.944000244140625,33.39400100708008 C50.944000244140625,33.39400100708008 50.944000244140625,50.94499969482422 50.944000244140625,50.94499969482422 C-5.23799991607666,50.94499969482422 -50.944000244140625,5.236999988555908 -50.944000244140625,-50.94499969482422z"></path></g></g></g></svg>